<mxfile host="Electron" agent="Mozilla/5.0 (Windows NT 10.0; Win64; x64) AppleWebKit/537.36 (KHTML, like Gecko) draw.io/26.2.15 Chrome/134.0.6998.205 Electron/35.2.1 Safari/537.36" version="26.2.15" pages="2">
  <diagram name="Page-1" id="OG3AB_cYNM9TVR3OHTjU">
    <mxGraphModel dx="1036" dy="702" grid="1" gridSize="10" guides="1" tooltips="1" connect="1" arrows="1" fold="1" page="1" pageScale="1" pageWidth="850" pageHeight="1100" math="0" shadow="0">
      <root>
        <mxCell id="0" />
        <mxCell id="1" parent="0" />
        <mxCell id="dhaCIdy_boi3vyWNEVU_-7" value="" style="edgeStyle=orthogonalEdgeStyle;rounded=0;orthogonalLoop=1;jettySize=auto;html=1;endArrow=none;endFill=0;shape=link;" edge="1" parent="1" source="dhaCIdy_boi3vyWNEVU_-1" target="dhaCIdy_boi3vyWNEVU_-2">
          <mxGeometry relative="1" as="geometry" />
        </mxCell>
        <mxCell id="dhaCIdy_boi3vyWNEVU_-17" value="Duplex" style="edgeLabel;html=1;align=center;verticalAlign=middle;resizable=0;points=[];" vertex="1" connectable="0" parent="dhaCIdy_boi3vyWNEVU_-7">
          <mxGeometry x="-0.1273" y="-2" relative="1" as="geometry">
            <mxPoint as="offset" />
          </mxGeometry>
        </mxCell>
        <mxCell id="dhaCIdy_boi3vyWNEVU_-19" value="" style="edgeStyle=orthogonalEdgeStyle;rounded=0;orthogonalLoop=1;jettySize=auto;html=1;" edge="1" parent="1" source="dhaCIdy_boi3vyWNEVU_-1" target="dhaCIdy_boi3vyWNEVU_-18">
          <mxGeometry relative="1" as="geometry" />
        </mxCell>
        <mxCell id="dhaCIdy_boi3vyWNEVU_-1" value="ESP32" style="rounded=0;whiteSpace=wrap;html=1;fontSize=20;" vertex="1" parent="1">
          <mxGeometry x="80" y="140" width="120" height="60" as="geometry" />
        </mxCell>
        <mxCell id="dhaCIdy_boi3vyWNEVU_-8" style="edgeStyle=orthogonalEdgeStyle;rounded=0;orthogonalLoop=1;jettySize=auto;html=1;exitX=1;exitY=0.5;exitDx=0;exitDy=0;entryX=0;entryY=0.5;entryDx=0;entryDy=0;endArrow=none;endFill=0;shape=link;" edge="1" parent="1" source="dhaCIdy_boi3vyWNEVU_-2" target="dhaCIdy_boi3vyWNEVU_-3">
          <mxGeometry relative="1" as="geometry" />
        </mxCell>
        <mxCell id="dhaCIdy_boi3vyWNEVU_-16" value="Duplex" style="edgeLabel;html=1;align=center;verticalAlign=middle;resizable=0;points=[];" vertex="1" connectable="0" parent="dhaCIdy_boi3vyWNEVU_-8">
          <mxGeometry x="0.0923" y="-3" relative="1" as="geometry">
            <mxPoint as="offset" />
          </mxGeometry>
        </mxCell>
        <mxCell id="dhaCIdy_boi3vyWNEVU_-2" value="I2C Board" style="rounded=1;whiteSpace=wrap;html=1;" vertex="1" parent="1">
          <mxGeometry x="310" y="145" width="70" height="50" as="geometry" />
        </mxCell>
        <mxCell id="dhaCIdy_boi3vyWNEVU_-15" value="" style="edgeStyle=orthogonalEdgeStyle;rounded=0;orthogonalLoop=1;jettySize=auto;html=1;" edge="1" parent="1" source="dhaCIdy_boi3vyWNEVU_-3" target="dhaCIdy_boi3vyWNEVU_-14">
          <mxGeometry relative="1" as="geometry" />
        </mxCell>
        <mxCell id="dhaCIdy_boi3vyWNEVU_-3" value="Arduino Uno" style="rounded=0;whiteSpace=wrap;html=1;fontSize=20;" vertex="1" parent="1">
          <mxGeometry x="510" y="140" width="120" height="60" as="geometry" />
        </mxCell>
        <mxCell id="dhaCIdy_boi3vyWNEVU_-13" value="" style="edgeStyle=orthogonalEdgeStyle;rounded=0;orthogonalLoop=1;jettySize=auto;html=1;" edge="1" parent="1" source="dhaCIdy_boi3vyWNEVU_-6" target="dhaCIdy_boi3vyWNEVU_-3">
          <mxGeometry relative="1" as="geometry" />
        </mxCell>
        <mxCell id="dhaCIdy_boi3vyWNEVU_-6" value="Thumbprint Sensor" style="rounded=0;whiteSpace=wrap;html=1;fontSize=16;" vertex="1" parent="1">
          <mxGeometry x="530" y="350" width="80" height="80" as="geometry" />
        </mxCell>
        <mxCell id="dhaCIdy_boi3vyWNEVU_-12" value="" style="edgeStyle=orthogonalEdgeStyle;rounded=0;orthogonalLoop=1;jettySize=auto;html=1;" edge="1" parent="1" source="dhaCIdy_boi3vyWNEVU_-11" target="dhaCIdy_boi3vyWNEVU_-1">
          <mxGeometry relative="1" as="geometry" />
        </mxCell>
        <mxCell id="dhaCIdy_boi3vyWNEVU_-11" value="" style="html=1;verticalLabelPosition=bottom;align=center;labelBackgroundColor=#ffffff;verticalAlign=top;strokeWidth=2;strokeColor=#0080F0;shadow=0;dashed=0;shape=mxgraph.ios7.icons.wifi;pointerEvents=1;fontSize=12;" vertex="1" parent="1">
          <mxGeometry x="109.99999999999997" y="50" width="60" height="55" as="geometry" />
        </mxCell>
        <mxCell id="dhaCIdy_boi3vyWNEVU_-14" value="&lt;font style=&quot;font-size: 20px;&quot;&gt;Logs&lt;/font&gt;" style="rounded=0;whiteSpace=wrap;html=1;" vertex="1" parent="1">
          <mxGeometry x="680" y="310" width="120" height="120" as="geometry" />
        </mxCell>
        <mxCell id="dhaCIdy_boi3vyWNEVU_-18" value="LCD Display" style="rounded=0;whiteSpace=wrap;html=1;fontSize=20;" vertex="1" parent="1">
          <mxGeometry x="80" y="280" width="120" height="60" as="geometry" />
        </mxCell>
      </root>
    </mxGraphModel>
  </diagram>
  <diagram id="VSStHQiwNTz8dhjS5Sfa" name="Page-2">
    <mxGraphModel dx="1683" dy="691" grid="1" gridSize="10" guides="1" tooltips="1" connect="1" arrows="1" fold="1" page="1" pageScale="1" pageWidth="850" pageHeight="1100" math="0" shadow="0">
      <root>
        <mxCell id="0" />
        <mxCell id="1" parent="0" />
        <mxCell id="x19BwNexdynB3muW7Rkv-3" value="" style="edgeStyle=orthogonalEdgeStyle;rounded=0;orthogonalLoop=1;jettySize=auto;html=1;" edge="1" parent="1" source="x19BwNexdynB3muW7Rkv-1" target="x19BwNexdynB3muW7Rkv-2">
          <mxGeometry relative="1" as="geometry" />
        </mxCell>
        <mxCell id="x19BwNexdynB3muW7Rkv-1" value="Finger_print_senor" style="rounded=0;whiteSpace=wrap;html=1;" vertex="1" parent="1">
          <mxGeometry x="240" y="190" width="120" height="60" as="geometry" />
        </mxCell>
        <mxCell id="x19BwNexdynB3muW7Rkv-5" value="" style="edgeStyle=orthogonalEdgeStyle;rounded=0;orthogonalLoop=1;jettySize=auto;html=1;" edge="1" parent="1" source="x19BwNexdynB3muW7Rkv-2" target="x19BwNexdynB3muW7Rkv-4">
          <mxGeometry relative="1" as="geometry" />
        </mxCell>
        <mxCell id="x19BwNexdynB3muW7Rkv-12" value="NO" style="edgeLabel;html=1;align=center;verticalAlign=middle;resizable=0;points=[];" vertex="1" connectable="0" parent="x19BwNexdynB3muW7Rkv-5">
          <mxGeometry x="-0.325" y="-1" relative="1" as="geometry">
            <mxPoint as="offset" />
          </mxGeometry>
        </mxCell>
        <mxCell id="x19BwNexdynB3muW7Rkv-10" value="" style="edgeStyle=orthogonalEdgeStyle;rounded=0;orthogonalLoop=1;jettySize=auto;html=1;entryX=0.5;entryY=0;entryDx=0;entryDy=0;" edge="1" parent="1" source="x19BwNexdynB3muW7Rkv-2" target="x19BwNexdynB3muW7Rkv-11">
          <mxGeometry relative="1" as="geometry">
            <mxPoint x="300" y="525" as="targetPoint" />
          </mxGeometry>
        </mxCell>
        <mxCell id="x19BwNexdynB3muW7Rkv-15" value="Yes" style="edgeLabel;html=1;align=center;verticalAlign=middle;resizable=0;points=[];" vertex="1" connectable="0" parent="x19BwNexdynB3muW7Rkv-10">
          <mxGeometry x="0.112" y="-2" relative="1" as="geometry">
            <mxPoint as="offset" />
          </mxGeometry>
        </mxCell>
        <mxCell id="x19BwNexdynB3muW7Rkv-2" value="Finger print&lt;div&gt;reconized?&lt;/div&gt;" style="rhombus;whiteSpace=wrap;html=1;" vertex="1" parent="1">
          <mxGeometry x="255" y="340" width="90" height="90" as="geometry" />
        </mxCell>
        <mxCell id="x19BwNexdynB3muW7Rkv-6" style="edgeStyle=orthogonalEdgeStyle;rounded=0;orthogonalLoop=1;jettySize=auto;html=1;exitX=0.5;exitY=0;exitDx=0;exitDy=0;" edge="1" parent="1" source="x19BwNexdynB3muW7Rkv-4">
          <mxGeometry relative="1" as="geometry">
            <mxPoint x="300" y="320" as="targetPoint" />
            <Array as="points">
              <mxPoint x="380" y="320" />
              <mxPoint x="380" y="320" />
            </Array>
          </mxGeometry>
        </mxCell>
        <mxCell id="x19BwNexdynB3muW7Rkv-16" value="No" style="edgeLabel;html=1;align=center;verticalAlign=middle;resizable=0;points=[];" vertex="1" connectable="0" parent="x19BwNexdynB3muW7Rkv-6">
          <mxGeometry x="0.0274" relative="1" as="geometry">
            <mxPoint as="offset" />
          </mxGeometry>
        </mxCell>
        <mxCell id="x19BwNexdynB3muW7Rkv-8" value="" style="edgeStyle=orthogonalEdgeStyle;rounded=0;orthogonalLoop=1;jettySize=auto;html=1;" edge="1" parent="1" source="x19BwNexdynB3muW7Rkv-4" target="x19BwNexdynB3muW7Rkv-7">
          <mxGeometry relative="1" as="geometry" />
        </mxCell>
        <mxCell id="x19BwNexdynB3muW7Rkv-14" value="Yes" style="edgeLabel;html=1;align=center;verticalAlign=middle;resizable=0;points=[];" vertex="1" connectable="0" parent="x19BwNexdynB3muW7Rkv-8">
          <mxGeometry x="-0.0933" relative="1" as="geometry">
            <mxPoint as="offset" />
          </mxGeometry>
        </mxCell>
        <mxCell id="x19BwNexdynB3muW7Rkv-4" value="x&amp;lt;3?" style="rhombus;whiteSpace=wrap;html=1;" vertex="1" parent="1">
          <mxGeometry x="425" y="340" width="90" height="90" as="geometry" />
        </mxCell>
        <mxCell id="x19BwNexdynB3muW7Rkv-7" value="Lock Out." style="rounded=0;whiteSpace=wrap;html=1;" vertex="1" parent="1">
          <mxGeometry x="410" y="490" width="120" height="60" as="geometry" />
        </mxCell>
        <mxCell id="x19BwNexdynB3muW7Rkv-22" value="" style="edgeStyle=orthogonalEdgeStyle;rounded=0;orthogonalLoop=1;jettySize=auto;html=1;" edge="1" parent="1" source="x19BwNexdynB3muW7Rkv-11" target="x19BwNexdynB3muW7Rkv-21">
          <mxGeometry relative="1" as="geometry" />
        </mxCell>
        <mxCell id="x19BwNexdynB3muW7Rkv-26" value="99" style="edgeLabel;html=1;align=center;verticalAlign=middle;resizable=0;points=[];" vertex="1" connectable="0" parent="x19BwNexdynB3muW7Rkv-22">
          <mxGeometry x="-0.1086" relative="1" as="geometry">
            <mxPoint as="offset" />
          </mxGeometry>
        </mxCell>
        <mxCell id="x19BwNexdynB3muW7Rkv-24" value="" style="edgeStyle=orthogonalEdgeStyle;rounded=0;orthogonalLoop=1;jettySize=auto;html=1;" edge="1" parent="1" source="x19BwNexdynB3muW7Rkv-11" target="x19BwNexdynB3muW7Rkv-23">
          <mxGeometry relative="1" as="geometry" />
        </mxCell>
        <mxCell id="x19BwNexdynB3muW7Rkv-25" value="1" style="edgeLabel;html=1;align=center;verticalAlign=middle;resizable=0;points=[];" vertex="1" connectable="0" parent="x19BwNexdynB3muW7Rkv-24">
          <mxGeometry x="-0.2254" y="-1" relative="1" as="geometry">
            <mxPoint as="offset" />
          </mxGeometry>
        </mxCell>
        <mxCell id="x19BwNexdynB3muW7Rkv-11" value="1 Or 99?" style="rhombus;whiteSpace=wrap;html=1;" vertex="1" parent="1">
          <mxGeometry x="255" y="565" width="90" height="90" as="geometry" />
        </mxCell>
        <mxCell id="x19BwNexdynB3muW7Rkv-21" value="Stop signal" style="rounded=0;whiteSpace=wrap;html=1;" vertex="1" parent="1">
          <mxGeometry x="410" y="580" width="120" height="60" as="geometry" />
        </mxCell>
        <mxCell id="x19BwNexdynB3muW7Rkv-23" value="Start Signal" style="rounded=0;whiteSpace=wrap;html=1;" vertex="1" parent="1">
          <mxGeometry x="240" y="700" width="120" height="60" as="geometry" />
        </mxCell>
      </root>
    </mxGraphModel>
  </diagram>
</mxfile>
